<svg width="50" height="50" viewBox="0 0 50 50" fill="none" xmlns="http://www.w3.org/2000/svg">
<path fill-rule="evenodd" clip-rule="evenodd" d="M15.6251 2.08325C16.7757 2.08325 17.7084 3.01599 17.7084 4.16659V6.24992H32.2917V4.16659C32.2917 3.01599 33.2245 2.08325 34.3751 2.08325C35.5257 2.08325 36.4584 3.01599 36.4584 4.16659V6.30135C41.7223 6.82398 45.8334 11.2652 45.8334 16.6666V35.4166C45.8334 41.1695 41.1697 45.8333 35.4167 45.8333H14.5834C8.83045 45.8333 4.16675 41.1695 4.16675 35.4166V16.6666C4.16675 11.2652 8.27787 6.82398 13.5417 6.30135V4.16659C13.5417 3.01599 14.4745 2.08325 15.6251 2.08325ZM8.68905 14.5833H41.3111C40.4531 12.1558 38.138 10.4166 35.4167 10.4166H14.5834C11.8621 10.4166 9.54704 12.1558 8.68905 14.5833ZM41.6668 18.7499H8.33342V35.4166C8.33342 38.8684 11.1316 41.6666 14.5834 41.6666H35.4167C38.8685 41.6666 41.6668 38.8684 41.6668 35.4166V18.7499ZM12.5001 24.9999C12.5001 23.8493 13.4328 22.9166 14.5834 22.9166H22.9167C24.0673 22.9166 25.0001 23.8493 25.0001 24.9999V33.3333C25.0001 34.4838 24.0673 35.4166 22.9167 35.4166H14.5834C13.4328 35.4166 12.5001 34.4838 12.5001 33.3333V24.9999ZM20.8334 27.0833H16.6667V31.2499H20.8334V27.0833Z" fill="black"/>
<path fill-rule="evenodd" clip-rule="evenodd" d="M15.6251 2.0835C16.7757 2.0835 17.7084 3.01624 17.7084 4.16683V6.25016H32.2917V4.16683C32.2917 3.01624 33.2245 2.0835 34.3751 2.0835C35.5257 2.0835 36.4584 3.01624 36.4584 4.16683V6.3016C41.7223 6.82422 45.8334 11.2654 45.8334 16.6668V35.4168C45.8334 41.1698 41.1697 45.8335 35.4167 45.8335H14.5834C8.83045 45.8335 4.16675 41.1698 4.16675 35.4168V16.6668C4.16675 11.2654 8.27787 6.82422 13.5417 6.3016V4.16683C13.5417 3.01624 14.4745 2.0835 15.6251 2.0835ZM8.68905 14.5835H41.3111C40.4531 12.156 38.138 10.4168 35.4167 10.4168H14.5834C11.8621 10.4168 9.54704 12.156 8.68905 14.5835ZM41.6668 18.7502H8.33342V35.4168C8.33342 38.8686 11.1316 41.6668 14.5834 41.6668H35.4167C38.8685 41.6668 41.6668 38.8686 41.6668 35.4168V18.7502ZM12.5001 25.0002C12.5001 23.8496 13.4328 22.9168 14.5834 22.9168H22.9167C24.0673 22.9168 25.0001 23.8496 25.0001 25.0002V33.3335C25.0001 34.4841 24.0673 35.4168 22.9167 35.4168H14.5834C13.4328 35.4168 12.5001 34.4841 12.5001 33.3335V25.0002ZM20.8334 27.0835H16.6667V31.2502H20.8334V27.0835Z" fill="black"/>
</svg>
