<svg width="42" height="44" viewBox="0 0 42 44" fill="none" xmlns="http://www.w3.org/2000/svg">
<path fill-rule="evenodd" clip-rule="evenodd" d="M11.4583 0C12.6089 0 13.5417 0.93274 13.5417 2.08333V4.16667H28.125V2.08333C28.125 0.93274 29.0577 0 30.2083 0C31.3589 0 32.2917 0.93274 32.2917 2.08333V4.2181C37.5555 4.74073 41.6667 9.18193 41.6667 14.5833V33.3333C41.6667 39.0863 37.003 43.75 31.25 43.75H10.4167C4.6637 43.75 0 39.0863 0 33.3333V14.5833C0 9.18193 4.11112 4.74073 9.375 4.2181V2.08333C9.375 0.93274 10.3077 0 11.4583 0ZM4.5223 12.5H37.1444C36.2864 10.0725 33.9713 8.33333 31.25 8.33333H10.4167C7.69538 8.33333 5.3803 10.0725 4.5223 12.5ZM37.5 16.6667H4.16667V33.3333C4.16667 36.7851 6.96489 39.5833 10.4167 39.5833H31.25C34.7018 39.5833 37.5 36.7851 37.5 33.3333V16.6667ZM8.33333 22.9167C8.33333 21.7661 9.26607 20.8333 10.4167 20.8333H18.75C19.9006 20.8333 20.8333 21.7661 20.8333 22.9167V31.25C20.8333 32.4006 19.9006 33.3333 18.75 33.3333H10.4167C9.26607 33.3333 8.33333 32.4006 8.33333 31.25V22.9167ZM16.6667 25H12.5V29.1667H16.6667V25Z" fill="black"/>
</svg>
